<svg xmlns="http://www.w3.org/2000/svg" width="583" height="433" viewBox="0 0 583 433" fill="none">

<path d="M57.3629 349V335.182H66.3501V337.28H59.8661V341.032H65.8846V343.13H59.8661V346.902H66.4041V349H57.3629ZM72.8956 335.182L75.9385 340.242H76.0465L79.1029 335.182H81.957L77.6995 342.091L82.0245 349H79.1232L76.0465 343.973H75.9385L72.8618 349H69.974L74.3395 342.091L70.028 335.182H72.8956ZM85.8221 349V335.182H91.0039C92.0655 335.182 92.9561 335.38 93.6758 335.776C94.4 336.171 94.9465 336.716 95.3154 337.408C95.6887 338.097 95.8754 338.879 95.8754 339.756C95.8754 340.643 95.6887 341.43 95.3154 342.118C94.942 342.806 94.391 343.348 93.6623 343.744C92.9336 344.135 92.0362 344.331 90.9702 344.331H87.5359V342.273H90.6328C91.2536 342.273 91.7619 342.165 92.1577 341.949C92.5535 341.733 92.8459 341.436 93.0348 341.059C93.2282 340.681 93.3249 340.247 93.3249 339.756C93.3249 339.266 93.2282 338.834 93.0348 338.461C92.8459 338.088 92.5513 337.797 92.1509 337.591C91.7551 337.379 91.2446 337.273 90.6193 337.273H88.3253V349H85.8221ZM99.9496 349V335.182H108.937V337.28H102.453V341.032H108.471V343.13H102.453V346.902H108.991V349H99.9496ZM113.391 349V335.182H118.572C119.634 335.182 120.525 335.366 121.244 335.735C121.969 336.104 122.515 336.621 122.884 337.287C123.257 337.948 123.444 338.72 123.444 339.601C123.444 340.487 123.255 341.257 122.877 341.909C122.504 342.556 121.953 343.058 121.224 343.413C120.495 343.764 119.6 343.94 118.539 343.94H114.848V341.862H118.201C118.822 341.862 119.33 341.776 119.726 341.605C120.122 341.43 120.414 341.176 120.603 340.843C120.797 340.505 120.894 340.092 120.894 339.601C120.894 339.111 120.797 338.693 120.603 338.346C120.41 337.995 120.115 337.73 119.719 337.55C119.324 337.366 118.813 337.273 118.188 337.273H115.894V349H113.391ZM120.529 342.739L123.95 349H121.157L117.797 342.739H120.529ZM130.151 335.182V349H127.648V335.182H130.151ZM134.762 349V335.182H143.749V337.28H137.265V341.032H143.284V343.13H137.265V346.902H143.803V349H134.762ZM159.558 335.182V349H157.332L150.821 339.588H150.706V349H148.203V335.182H150.443L156.947 344.601H157.069V335.182H159.558ZM176.014 339.844H173.49C173.418 339.43 173.286 339.064 173.092 338.744C172.899 338.42 172.658 338.146 172.37 337.921C172.082 337.696 171.754 337.528 171.385 337.415C171.021 337.298 170.627 337.24 170.204 337.24C169.453 337.24 168.788 337.429 168.207 337.806C167.627 338.18 167.173 338.729 166.844 339.453C166.516 340.172 166.352 341.052 166.352 342.091C166.352 343.148 166.516 344.039 166.844 344.763C167.177 345.482 167.632 346.027 168.207 346.396C168.788 346.76 169.451 346.942 170.198 346.942C170.612 346.942 170.998 346.888 171.358 346.78C171.723 346.668 172.049 346.504 172.337 346.288C172.629 346.072 172.874 345.806 173.072 345.491C173.274 345.177 173.414 344.817 173.49 344.412L176.014 344.425C175.919 345.082 175.715 345.698 175.4 346.274C175.089 346.85 174.682 347.358 174.179 347.799C173.675 348.235 173.085 348.577 172.411 348.825C171.736 349.067 170.987 349.189 170.164 349.189C168.949 349.189 167.865 348.908 166.912 348.346C165.958 347.783 165.207 346.971 164.658 345.91C164.11 344.848 163.835 343.575 163.835 342.091C163.835 340.602 164.112 339.329 164.665 338.272C165.218 337.21 165.972 336.399 166.925 335.836C167.879 335.274 168.958 334.993 170.164 334.993C170.933 334.993 171.648 335.101 172.31 335.317C172.971 335.533 173.56 335.85 174.077 336.268C174.595 336.682 175.02 337.19 175.353 337.793C175.69 338.391 175.91 339.075 176.014 339.844ZM180.206 349V335.182H189.193V337.28H182.709V341.032H188.728V343.13H182.709V346.902H189.247V349H180.206ZM199.653 337.28V335.182H210.678V337.28H206.407V349H203.924V337.28H199.653ZM214.703 349V335.182H217.206V341.032H223.609V335.182H226.119V349H223.609V343.13H217.206V349H214.703ZM230.742 349V335.182H239.729V337.28H233.245V341.032H239.263V343.13H233.245V346.902H239.783V349H230.742ZM250.796 349V335.182H255.977C257.039 335.182 257.93 335.366 258.649 335.735C259.373 336.104 259.92 336.621 260.289 337.287C260.662 337.948 260.849 338.72 260.849 339.601C260.849 340.487 260.66 341.257 260.282 341.909C259.909 342.556 259.358 343.058 258.629 343.413C257.9 343.764 257.005 343.94 255.944 343.94H252.253V341.862H255.606C256.227 341.862 256.735 341.776 257.131 341.605C257.527 341.43 257.819 341.176 258.008 340.843C258.202 340.505 258.298 340.092 258.298 339.601C258.298 339.111 258.202 338.693 258.008 338.346C257.815 337.995 257.52 337.73 257.124 337.55C256.729 337.366 256.218 337.273 255.593 337.273H253.299V349H250.796ZM257.934 342.739L261.355 349H258.562L255.201 342.739H257.934ZM277.4 342.091C277.4 343.58 277.121 344.855 276.564 345.917C276.01 346.974 275.255 347.783 274.297 348.346C273.343 348.908 272.261 349.189 271.051 349.189C269.841 349.189 268.757 348.908 267.799 348.346C266.845 347.779 266.09 346.967 265.532 345.91C264.979 344.848 264.702 343.575 264.702 342.091C264.702 340.602 264.979 339.329 265.532 338.272C266.09 337.21 266.845 336.399 267.799 335.836C268.757 335.274 269.841 334.993 271.051 334.993C272.261 334.993 273.343 335.274 274.297 335.836C275.255 336.399 276.01 337.21 276.564 338.272C277.121 339.329 277.4 340.602 277.4 342.091ZM274.884 342.091C274.884 341.043 274.719 340.159 274.391 339.439C274.067 338.715 273.617 338.169 273.042 337.8C272.466 337.426 271.802 337.24 271.051 337.24C270.3 337.24 269.637 337.426 269.061 337.8C268.485 338.169 268.033 338.715 267.705 339.439C267.381 340.159 267.219 341.043 267.219 342.091C267.219 343.139 267.381 344.025 267.705 344.749C268.033 345.469 268.485 346.016 269.061 346.389C269.637 346.758 270.3 346.942 271.051 346.942C271.802 346.942 272.466 346.758 273.042 346.389C273.617 346.016 274.067 345.469 274.391 344.749C274.719 344.025 274.884 343.139 274.884 342.091ZM294.014 342.091C294.014 343.58 293.735 344.855 293.177 345.917C292.624 346.974 291.869 347.783 290.91 348.346C289.957 348.908 288.875 349.189 287.665 349.189C286.455 349.189 285.371 348.908 284.413 348.346C283.459 347.779 282.704 346.967 282.146 345.91C281.593 344.848 281.316 343.575 281.316 342.091C281.316 340.602 281.593 339.329 282.146 338.272C282.704 337.21 283.459 336.399 284.413 335.836C285.371 335.274 286.455 334.993 287.665 334.993C288.875 334.993 289.957 335.274 290.91 335.836C291.869 336.399 292.624 337.21 293.177 338.272C293.735 339.329 294.014 340.602 294.014 342.091ZM291.497 342.091C291.497 341.043 291.333 340.159 291.005 339.439C290.681 338.715 290.231 338.169 289.655 337.8C289.08 337.426 288.416 337.24 287.665 337.24C286.914 337.24 286.25 337.426 285.675 337.8C285.099 338.169 284.647 338.715 284.318 339.439C283.995 340.159 283.833 341.043 283.833 342.091C283.833 343.139 283.995 344.025 284.318 344.749C284.647 345.469 285.099 346.016 285.675 346.389C286.25 346.758 286.914 346.942 287.665 346.942C288.416 346.942 289.08 346.758 289.655 346.389C290.231 346.016 290.681 345.469 291.005 344.749C291.333 344.025 291.497 343.139 291.497 342.091ZM297.061 337.28V335.182H308.086V337.28H303.815V349H301.332V337.28H297.061ZM319.621 338.98C319.558 338.391 319.293 337.932 318.825 337.604C318.361 337.276 317.759 337.112 317.017 337.112C316.495 337.112 316.047 337.19 315.674 337.348C315.301 337.505 315.015 337.719 314.817 337.989C314.619 338.259 314.518 338.567 314.513 338.913C314.513 339.201 314.579 339.451 314.709 339.662C314.844 339.873 315.026 340.053 315.256 340.202C315.485 340.346 315.739 340.467 316.018 340.566C316.297 340.665 316.578 340.748 316.861 340.816L318.157 341.14C318.679 341.261 319.18 341.425 319.661 341.632C320.147 341.839 320.581 342.1 320.964 342.415C321.35 342.73 321.656 343.11 321.881 343.555C322.106 344 322.219 344.522 322.219 345.12C322.219 345.93 322.012 346.643 321.598 347.259C321.184 347.871 320.586 348.35 319.803 348.696C319.025 349.038 318.083 349.209 316.976 349.209C315.901 349.209 314.968 349.043 314.176 348.71C313.389 348.377 312.773 347.891 312.327 347.252C311.886 346.614 311.648 345.836 311.612 344.918H314.075C314.111 345.399 314.259 345.8 314.52 346.119C314.781 346.438 315.121 346.677 315.539 346.834C315.962 346.992 316.434 347.07 316.956 347.07C317.5 347.07 317.977 346.989 318.386 346.827C318.8 346.661 319.124 346.432 319.358 346.139C319.592 345.842 319.711 345.496 319.715 345.1C319.711 344.74 319.605 344.443 319.398 344.21C319.191 343.971 318.901 343.773 318.528 343.616C318.159 343.454 317.727 343.31 317.232 343.184L315.66 342.779C314.522 342.487 313.623 342.044 312.962 341.45C312.305 340.852 311.976 340.058 311.976 339.068C311.976 338.254 312.197 337.541 312.638 336.929C313.083 336.318 313.688 335.843 314.453 335.506C315.217 335.164 316.083 334.993 317.05 334.993C318.031 334.993 318.89 335.164 319.628 335.506C320.37 335.843 320.952 336.313 321.375 336.916C321.798 337.514 322.016 338.202 322.03 338.98H319.621ZM345.31 342.091C345.31 343.58 345.032 344.855 344.474 345.917C343.921 346.974 343.165 347.783 342.207 348.346C341.253 348.908 340.171 349.189 338.961 349.189C337.751 349.189 336.667 348.908 335.709 348.346C334.756 347.779 334 346.967 333.442 345.91C332.889 344.848 332.612 343.575 332.612 342.091C332.612 340.602 332.889 339.329 333.442 338.272C334 337.21 334.756 336.399 335.709 335.836C336.667 335.274 337.751 334.993 338.961 334.993C340.171 334.993 341.253 335.274 342.207 335.836C343.165 336.399 343.921 337.21 344.474 338.272C345.032 339.329 345.31 340.602 345.31 342.091ZM342.794 342.091C342.794 341.043 342.63 340.159 342.301 339.439C341.977 338.715 341.528 338.169 340.952 337.8C340.376 337.426 339.713 337.24 338.961 337.24C338.21 337.24 337.547 337.426 336.971 337.8C336.395 338.169 335.943 338.715 335.615 339.439C335.291 340.159 335.129 341.043 335.129 342.091C335.129 343.139 335.291 344.025 335.615 344.749C335.943 345.469 336.395 346.016 336.971 346.389C337.547 346.758 338.21 346.942 338.961 346.942C339.713 346.942 340.376 346.758 340.952 346.389C341.528 346.016 341.977 345.469 342.301 344.749C342.63 344.025 342.794 343.139 342.794 342.091ZM349.577 349V335.182H358.429V337.28H352.08V341.032H357.822V343.13H352.08V349H349.577ZM380.578 335.182V349H378.352L371.841 339.588H371.726V349H369.223V335.182H371.463L377.967 344.601H378.088V335.182H380.578ZM386.98 349H384.308L389.173 335.182H392.263L397.135 349H394.463L390.772 338.016H390.664L386.98 349ZM387.068 343.582H394.355V345.593H387.068V343.582ZM398.578 337.28V335.182H409.602V337.28H405.331V349H402.849V337.28H398.578ZM422.338 335.182H424.842V344.21C424.842 345.199 424.608 346.069 424.14 346.821C423.677 347.572 423.024 348.159 422.183 348.582C421.342 349 420.359 349.209 419.235 349.209C418.106 349.209 417.121 349 416.279 348.582C415.438 348.159 414.786 347.572 414.323 346.821C413.859 346.069 413.628 345.199 413.628 344.21V335.182H416.131V344C416.131 344.576 416.257 345.089 416.509 345.539C416.765 345.989 417.125 346.342 417.588 346.598C418.052 346.85 418.6 346.976 419.235 346.976C419.869 346.976 420.418 346.85 420.881 346.598C421.349 346.342 421.709 345.989 421.96 345.539C422.212 345.089 422.338 344.576 422.338 344V335.182ZM428.855 337.28V335.182H439.88V337.28H435.609V349H433.126V337.28H428.855ZM443.905 349V335.182H449.087C450.149 335.182 451.039 335.366 451.759 335.735C452.483 336.104 453.03 336.621 453.399 337.287C453.772 337.948 453.959 338.72 453.959 339.601C453.959 340.487 453.77 341.257 453.392 341.909C453.018 342.556 452.467 343.058 451.739 343.413C451.01 343.764 450.115 343.94 449.053 343.94H445.363V341.862H448.716C449.337 341.862 449.845 341.776 450.241 341.605C450.637 341.43 450.929 341.176 451.118 340.843C451.311 340.505 451.408 340.092 451.408 339.601C451.408 339.111 451.311 338.693 451.118 338.346C450.925 337.995 450.63 337.73 450.234 337.55C449.838 337.366 449.328 337.273 448.703 337.273H446.409V349H443.905ZM451.044 342.739L454.465 349H451.671L448.311 342.739H451.044ZM458.163 349V335.182H467.15V337.28H460.666V341.032H466.684V343.13H460.666V346.902H467.204V349H458.163Z" fill="black"/>
<path d="M81.68 262.36C86.7467 262.36 91.12 263.507 94.8 265.8C98.48 268.04 101.307 271.32 103.28 275.64C105.253 279.96 106.24 285.187 106.24 291.32C106.24 297.347 105.253 302.547 103.28 306.92C101.307 311.24 98.48 314.547 94.8 316.84C91.12 319.133 86.7467 320.28 81.68 320.28C76.6133 320.28 72.2133 319.16 68.48 316.92C64.8 314.627 61.9733 311.32 60 307C58.0267 302.627 57.04 297.4 57.04 291.32C57.04 285.347 58.0267 280.2 60 275.88C62.0267 271.507 64.88 268.173 68.56 265.88C72.2933 263.533 76.6667 262.36 81.68 262.36ZM81.68 271.16C77.6267 271.16 74.56 272.76 72.48 275.96C70.4533 279.16 69.44 284.28 69.44 291.32C69.44 298.36 70.48 303.48 72.56 306.68C74.64 309.88 77.68 311.48 81.68 311.48C85.7333 311.48 88.7733 309.907 90.8 306.76C92.8267 303.56 93.84 298.413 93.84 291.32C93.84 284.227 92.8267 279.107 90.8 275.96C88.7733 272.76 85.7333 271.16 81.68 271.16ZM145.873 297.32H139.873V319H128.112V263.64H145.392C152.806 263.64 158.379 265.027 162.113 267.8C165.846 270.52 167.713 274.653 167.713 280.2C167.713 283.827 166.806 286.813 164.993 289.16C163.233 291.507 160.486 293.507 156.753 295.16L171.073 319H157.713L145.873 297.32ZM139.873 289H146.033C149.179 289 151.552 288.307 153.152 286.92C154.752 285.48 155.552 283.24 155.552 280.2C155.552 277.373 154.699 275.32 152.992 274.04C151.339 272.707 148.726 272.04 145.153 272.04H139.873V289ZM212.396 262.36C216.129 262.36 219.436 262.947 222.316 264.12C225.249 265.24 227.969 266.867 230.476 269L224.316 275.4C222.342 273.907 220.476 272.813 218.716 272.12C217.009 271.427 215.062 271.08 212.876 271.08C208.662 271.08 205.249 272.76 202.636 276.12C200.076 279.427 198.796 284.493 198.796 291.32C198.796 298.52 199.782 303.693 201.756 306.84C203.782 309.933 206.902 311.48 211.116 311.48C214.156 311.48 216.902 310.813 219.356 309.48V295.96H211.596L210.396 287.4H230.796V314.68C227.916 316.44 224.796 317.827 221.436 318.84C218.129 319.8 214.769 320.28 211.356 320.28C203.196 320.28 197.009 317.827 192.796 312.92C188.582 308.013 186.476 300.787 186.476 291.24C186.476 285.213 187.622 280.013 189.916 275.64C192.209 271.267 195.302 267.96 199.196 265.72C203.142 263.48 207.542 262.36 212.396 262.36ZM282.766 319L279.646 306.6H262.286L259.166 319H246.926L263.966 263.64H278.286L295.246 319H282.766ZM264.526 297.88H277.406L270.926 272.36L264.526 297.88ZM355.081 319H339.961L322.361 275.08C322.841 278.867 323.214 282.44 323.481 285.8C323.801 289.107 323.961 293 323.961 297.48V319H313.321V263.64H328.121L346.041 307.64C344.974 300.493 344.441 293.933 344.441 287.96V263.64H355.081V319ZM391.478 263.64V319H379.718V263.64H391.478ZM438.034 262.36C441.5 262.36 444.514 262.867 447.074 263.88C449.634 264.84 452.14 266.333 454.594 268.36L448.754 275.16C445.554 272.547 442.194 271.24 438.674 271.24C434.727 271.24 431.58 272.867 429.234 276.12C426.94 279.32 425.794 284.36 425.794 291.24C425.794 297.96 426.94 302.947 429.234 306.2C431.58 309.4 434.754 311 438.754 311C440.834 311 442.727 310.627 444.434 309.88C446.14 309.08 447.927 307.96 449.794 306.52L455.234 313.32C453.26 315.347 450.807 317.027 447.874 318.36C444.994 319.64 441.794 320.28 438.274 320.28C433.314 320.28 428.967 319.16 425.234 316.92C421.5 314.68 418.594 311.4 416.514 307.08C414.434 302.707 413.394 297.427 413.394 291.24C413.394 285.213 414.46 280.04 416.594 275.72C418.727 271.347 421.66 268.04 425.394 265.8C429.127 263.507 433.34 262.36 438.034 262.36ZM490.956 262.36C494.956 262.36 498.422 262.947 501.356 264.12C504.342 265.24 507.089 266.973 509.596 269.32L503.996 275.8C502.022 274.2 500.049 273.027 498.076 272.28C496.102 271.533 493.996 271.16 491.756 271.16C489.302 271.16 487.329 271.693 485.836 272.76C484.396 273.773 483.676 275.24 483.676 277.16C483.676 278.493 483.969 279.587 484.556 280.44C485.196 281.293 486.289 282.093 487.836 282.84C489.382 283.587 491.702 284.44 494.796 285.4C500.289 287.16 504.396 289.347 507.116 291.96C509.836 294.52 511.196 298.2 511.196 303C511.196 306.413 510.342 309.427 508.636 312.04C506.929 314.6 504.449 316.627 501.196 318.12C497.942 319.56 494.129 320.28 489.756 320.28C485.382 320.28 481.489 319.587 478.076 318.2C474.662 316.813 471.729 314.92 469.276 312.52L475.276 305.88C477.409 307.693 479.622 309.08 481.916 310.04C484.209 310.947 486.716 311.4 489.436 311.4C492.316 311.4 494.609 310.733 496.316 309.4C498.076 308.067 498.956 306.2 498.956 303.8C498.956 302.307 498.636 301.08 497.996 300.12C497.409 299.107 496.369 298.2 494.876 297.4C493.382 296.6 491.222 295.773 488.396 294.92C482.369 293.053 478.049 290.813 475.436 288.2C472.876 285.587 471.596 282.173 471.596 277.96C471.596 274.867 472.422 272.147 474.076 269.8C475.729 267.4 478.022 265.56 480.956 264.28C483.889 263 487.222 262.36 490.956 262.36Z" fill="#1E5037"/>
<path d="M125.672 252H98.92L73.32 183.264C74.1733 190.005 74.8133 195.979 75.24 201.184C75.752 206.304 76.008 212.405 76.008 219.488V252H57.32V163.296H83.432L109.672 232.16C107.795 220.469 106.856 209.461 106.856 199.136V163.296H125.672V252ZM332.047 252H305.295L279.695 183.264C280.548 190.005 281.188 195.979 281.615 201.184C282.127 206.304 282.383 212.405 282.383 219.488V252H263.695V163.296H289.807L316.047 232.16C314.17 220.469 313.231 209.461 313.231 199.136V163.296H332.047V252ZM377.114 161.12C383.77 161.12 389.53 162.059 394.394 163.936C399.343 165.813 403.823 168.672 407.834 172.512L398.106 183.904C392.047 178.955 385.562 176.48 378.65 176.48C374.981 176.48 372.079 177.248 369.946 178.784C367.813 180.235 366.746 182.368 366.746 185.184C366.746 187.147 367.215 188.768 368.154 190.048C369.093 191.243 370.757 192.395 373.146 193.504C375.535 194.613 379.119 195.936 383.898 197.472C392.943 200.373 399.599 203.957 403.866 208.224C408.133 212.405 410.266 218.379 410.266 226.144C410.266 231.691 408.858 236.597 406.042 240.864C403.226 245.045 399.173 248.331 393.882 250.72C388.591 253.024 382.319 254.176 375.066 254.176C367.813 254.176 361.37 253.024 355.738 250.72C350.191 248.416 345.413 245.344 341.402 241.504L352.026 229.856C355.439 232.757 358.938 234.933 362.522 236.384C366.191 237.835 370.159 238.56 374.426 238.56C378.778 238.56 382.191 237.621 384.666 235.744C387.226 233.781 388.506 231.093 388.506 227.68C388.506 225.461 388.037 223.627 387.098 222.176C386.159 220.64 384.538 219.275 382.234 218.08C379.93 216.885 376.602 215.605 372.25 214.24C362.437 211.253 355.439 207.584 351.258 203.232C347.162 198.88 345.114 193.376 345.114 186.72C345.114 181.6 346.479 177.12 349.21 173.28C351.941 169.355 355.738 166.368 360.602 164.32C365.466 162.187 370.97 161.12 377.114 161.12ZM476.22 163.296L474.044 178.272H442.812V199.52H470.076V214.24H442.812V236.896H476.22V252H421.82V163.296H476.22ZM510.187 163.296V252H489.195V163.296H510.187Z" fill="#1E5037"/>
<path d="M177.989 252H141.75L180.5 168.943C186.182 150.729 187.899 141.1 179.286 128.564C139.736 112.343 107.645 113.373 116.474 47.7652C124.526 52.4439 132.803 54.5308 155.308 57.1495C205.45 72.8121 197.751 89.4308 195.607 114.507C177.784 88.6778 165.728 83.628 142.628 73.4259C119.529 63.2239 185.258 100.547 197.783 142.387C224.741 102.516 243.278 81.837 294.408 53.8007C251.749 67.3482 235.075 79.5896 212.137 105.784C213.302 59.5809 216.334 33.0465 332.782 23C335.986 90.194 303.944 123.746 230.633 126.539C213.449 137.549 190.778 191.205 177.989 252Z" fill="#96C832"/>
<path d="M209.278 184.973C208.525 182.276 208.88 179.391 210.264 176.957L217 165.113L247.5 252H228L209.278 184.973Z" fill="#1E5037"/>
<path d="M192.5 228L196.053 213.787C196.61 211.561 198.61 210 200.904 210H231V228H192.5Z" fill="#1E5037"/>
</svg>